<?xml version="1.0" encoding="UTF-8"?>
<svg id="Deutschschweiz" xmlns="http://www.w3.org/2000/svg" viewBox="0 0 180 179.54">
  <defs>
    <style>
      .cls-1 {
        fill: #30748a;
      }

      .cls-1, .cls-2 {
        stroke-width: 0px;
      }

      .cls-2 {
        fill: #31758b;
      }
    </style>
  </defs>
  <polygon class="cls-1" points="63.36 138 65.1 136.74 67.86 135.57 69.33 132.51 68.04 130.8 68.04 129.33 67.43 127.37 66.69 124.3 63.02 119.95 63.88 118.48 63.51 117.32 63.51 116.03 61.85 116.95 60.38 116.89 59.96 116.28 59.4 116.34 58.61 116.15 55.61 117.75 53.46 118.48 53.22 116.77 51.26 117.81 51.2 119.1 49.6 119.1 49.17 116.89 48.5 116.4 49.05 115.11 48.99 113.03 49.66 112.72 50.22 111.93 49.72 110.46 50.28 110.46 50.89 108.13 50.34 106.35 50.95 105.5 49.79 104.94 48.99 105.5 48.25 104.88 48.68 103.41 51.62 101.45 51.93 100.47 50.77 98.94 50.34 97.29 49.36 97.84 48.87 97.1 49.42 96.31 49.23 95.26 48.13 94.04 48.44 92.26 47.76 90.92 46.78 88.95 48.5 87.79 48.44 87.12 47.46 87.79 46.6 87.79 45.93 87.42 47.4 86.14 46.66 85.52 45.74 86.5 44.76 86.87 44.15 85.4 46.54 82.22 46.66 80.99 44.7 81.3 42.56 81.3 42.01 79.7 42.62 77.87 44.95 77.01 46.42 75.66 46.11 74.74 47.27 73.09 50.09 70.94 54.63 69.11 54.26 67.45 57.69 66.1 57.63 65.37 59.71 64.63 61.18 63.35 60.75 62.55 63.08 61.57 61.92 61.02 62.71 59.98 61.61 58.57 59.1 58.57 58.3 58.14 57.57 57.9 56.34 56.24 55.3 56 54.56 55.08 51.87 54.85 51.57 54.83 51 54.75 50.56 54.19 49.68 53.92 48.53 53.31 48.3 52.35 49.03 50.68 47.94 50.78 47.41 50.7 46.7 50.36 45.8 50.23 43.98 50.55 42.94 50.4 42.58 50.12 42.22 50.03 41.86 50.12 41.51 50.4 40.77 50.63 40.87 51.28 41.28 52.1 41.47 52.8 41.17 53.29 40.58 53.8 39.93 54.17 38.89 54.41 38.83 55.52 37.8 56.12 37.22 56.89 36.72 57.81 36.53 58.56 41.26 58.09 41.99 57.74 43.18 58.77 43.59 59.36 43.29 60.01 42.91 60.25 42.5 60.36 42.09 60.6 41.51 61.39 40.93 61.52 40.18 62.29 39.93 63.5 40.09 64.95 37.39 66.94 36.23 68.13 35.48 69.39 32.87 71.8 31.68 72.22 31.73 73.22 31.01 73.62 30.86 73.99 29.86 74.35 29.49 74.72 28.95 75.65 29.43 76.73 28.52 78.05 25.86 80.08 21.58 81.43 19.66 82.55 19.06 84.59 19.76 86.13 19.89 86.77 19.82 87.58 19.32 88.64 18.64 90.81 18.75 91.14 19.26 91.75 19.27 92.73 19.12 93.21 18.67 93.78 16.93 94.79 15.89 95.98 15.49 96.31 12.64 97.88 7.29 102.79 6.76 103.5 6.88 104.26 7.84 105.34 6.44 107.12 5.05 109.5 4.6 109.99 4.44 110.34 4.44 110.64 4.53 110.91 4.62 111.15 4.65 111.58 4.65 111.77 4.73 112.16 4.66 112.54 4.2 112.98 6.35 114.3 6.93 114.93 7.42 115.81 7.47 116.44 6.19 119.33 5.77 121.41 5.75 122.03 5.79 122.56 5.61 122.95 4.51 123.25 3.88 123.11 1.37 124.31 .4 124.93 .25 125.62 .66 126.41 1.36 127.29 1.24 127.79 .41 129.61 1.36 129.04 3.17 128.61 4.98 128.54 6.34 129.14 7.63 128.48 9.66 126.09 12.2 124.4 13.23 123.31 13.03 121.99 12.75 121.86 12.08 122.17 11.67 121.95 11.5 121.71 11.11 120.76 11.09 120.52 10.56 118.97 10.78 118.19 12.75 115.54 14.04 114.42 15.27 114.02 16.57 113.96 17.87 113.63 21.26 111.29 23.81 110.79 26.46 110.87 32.39 112.41 32.99 112.71 33.36 113.28 33.44 114.38 33.16 115.34 32.11 116.57 31.9 117.24 32.66 118.56 34.07 120.06 34.97 121.62 33.56 124.37 32.87 126.43 32.51 128.4 32.85 129.36 36.02 130.06 36.63 130.65 36.59 131.09 35.92 132.16 36 133.33 35.96 133.83 35.9 134.25 36.25 134.51 36.63 134.57 37.21 134.04 37.55 133.91 38.45 134.31 41.15 137.36 41.34 137.49 41.94 139.28 42.22 140.33 42.43 140.91 43.19 141.91 44.49 143.37 45.42 143.93 46.64 144.18 47.94 144.15 49.14 143.93 51.59 142.92 52.71 142.23 53.24 142.05 56.22 142.36 57.5 141.92 59.85 140.19 61.04 139.67 61.87 139.57 62.69 138.35 63.36 138"/>
  <path class="cls-1" d="M51.57,54.83l2.99.25.74.92,1.04.25,1.23,1.65.74.25.8.43h2.51l1.1,1.41-.8,1.04,1.16.55-2.33.98.43.8-1.47,1.29-2.08.74.06.74-3.43,1.35.37,1.65-4.53,1.84-2.82,2.14-1.16,1.65.31.92-1.47,1.35-2.33.86-.61,1.84.55,1.59h2.14l1.96-.31-.12,1.23-2.39,3.19.61,1.47.98-.37.92-.98.74.61-1.47,1.29.67.37h.86l.98-.67.06.67-1.72,1.16,1.65,3.31-.31,1.78,1.1,1.23.18,1.04-.55.8.49.74.98-.55.43,1.65,1.16,1.53-.31.98-2.94,1.96-.43,1.47.74.61.8-.55,1.16.55-.61.86.55,1.78-.61,2.33h-.55l.49,1.47-.55.8-.67.31.06,2.08-.55,1.29.67.49.43,2.21h1.59l.06-1.29,1.96-1.04.25,1.72,2.14-.74,3-1.59.8.18.55-.06.43.61,1.47.06,1.65-.92v1.29l.37,1.16-.86,1.47,3.68,4.35.74,3.06.61,1.96v1.47l1.29,1.72-1.47,3.06-2.76,1.16-1.74,1.26,4.05,1.02.63.36.6.56.81,1.24.49.17.52-.17.5-.1,1.91.7,1.09-.02.94.23.5-.27.09-.19-.03-.3.17-.68.72-.03.27-1.22.44-.76.5-.4,3.3-.83.69-.81.49-1.09.21-1.71v-.66l.09-.57.28-.59.4-.31.82-.09.43-.15,1.74-1.51.86-1.86-.11-2.11-1.18-2.28-.93-.81-.13-.26.16-.46.36-.51.81-.84.86-.4,1.73-.39.9-.67,1.88-2.49,1.13-.57.52-.43.33-.4.24-.53-.02-.58-.26-.2-.15-.24.33-.73.85-.9,1.08-.59,1.48-.32v-1.69l2.3-.09,1.11-1.85,1.76-.79-.37-1.62,1.06-1.48,1.3.05.79.88,1.06-.14,1.02.19.97-.51.28-2.5-1.06-.88.05-.83,1.02-.83-.28-1.99.79-.23h.79l1.62-.93v-1.57h.65l.37.88,1.48-.65v-1.43h.79l-.28-1.71h.79l1.16-1.11,1.71-.14v.65l.74.05,2.96-.74,1.3-2.17v-.93l.56-.46h1.39l.65,1.25.93-.51.46-.97,1.48.74.74.83,1.67,1.43.23,1.48,2.08-.51v.65l-1.3.93.79,1.53-.05,3.52-1.67,1.99-.93-1.11-1.48.05v1.02l-.97-.05v.97l-.97,1.62-1.67,2.59-2.36,1.16-.28,2.31,1.62,2.31,1.57-.37,2.22-1.48,2.36-.05,1.99-.93.96,1.41,1.97-.23.75.2.03.72,1.02.97.18.08.55-.12.22-.43.15-.38.23-.31.64-.47.31-.07.13.49.23,5.41-.06.88.06.29.26.27.93.53.35.29.79,2.08.51.7.78.53.99.38,4.56.05.75-.3.61-.85-.04-1.01.04-.72.46-.53h.43s.97.6.97.6l.51.11,3.47-1.63,1.74-.3.77.06.82.21,1,.66.26.94.02,1.14.18,1.29.66.76,1.57,1.4.4.98.03,1.3,1.24.03,1.76-.64,1.01-.64.62-1.16-.56-1.08-1.59-1.62-.41-.79-.11-.34.02-.35.21-.96.3-.56.95-.9.19-.29.29-1.2-.37-.67-.55-.22-1.84-.37-1.17-.46-.63-.78.7-1.2-.35-.24-.19-.32-.18-.48.04-.47.17-.7v-1.24s-.02-.45-.02-.45l.42-.42.98-1.02.21-.28.51-1.93c-.37.21-.88.51-1.48.89-1.04.66-1.41.96-1.61.83-.33-.22.39-1.26-.13-2.17-.08-.13-.29-.32-.72-.7-.81-.71-1.22-1.06-1.5-1.18-1-.43-1.47.26-2.25-.16-.64-.34-1.07-1.2-.96-1.98.13-.95,1.01-1.55,1.66-1.74.92-.28,1.55.19,1.85-.19.25-.3.05-.87-.19-1.55-.32-.94-.72-1.35-.54-1.64.14-.21.38-.05.72-.27.28-.18.34-.43.77-1.65.27-.76.31-.84.43-.92.51-.3,1.25.4,1.53.11.17-.18.12-.51,0-.88l1.31-.07c.14-.6.27-1.19.41-1.79l-.91-.55-1.47-1.4-4.26-1.38-.99-.76-.51-.78-.06-.48.13-.63.1-1.37.16-.56v-.34l-.22-.24-.23.04-.11-.15.06-.61-7.52-2.38-.71-.1-2.04.25-.74-.2-.82.26-2.54-.44-.79-.23-.05-.54.44-.73.63-.52.38-.78-.04-1.31-.35-.96-.38-.74-.32-.99.09-1.97.69-1.98,1.94-3.29,1.36-1.64.17-.5.22-1.05.16-.43,1.53-1.94.39-.89.03-2.49-1.14-1.01-1.48-.68-1.18-1.78-.3-1.39-10.91-6.82-1.55-.36h-1.49s-.54-.84-.54-.84h-2.2l-4.44-.5-.75.3-.63.69-1.45.46-1.56.15-1.05-.31-1.11-.84-.56-.61v-.37s.73-.17.73-.17l-1.03-.98-1.3-.76-1.07-.05-.36,1.16.32.37-2.1.03-.18-.84-.32-.39-.17-.48v-.48s.77-.93.77-.93l-.26-.6-.39-.08-.44.09-.47-.19-.5-.97-.42-.67-.51-.17-.36.38-.21,1.29-.49.32-.39-.29-.14-.72-.04-.76-.06-.43-.74-.33-.99-.06-.63.36.32.8-.66.46-2.03.41h-.44s-.24.13-.24.13l-.61.84-.19.43-.3,1.18-.42.4-1.01.55-.35.4-.09.48.24.8-.23.78.82.26.9.69.81.49.85.05,1.14-.7.6-.3,1.93-.33,1.19.36.36.04-.23,1.4-.26-.13-.06-.46-.34.07-.28.47.1.36.04.59v.57s-.04.44-.04.44l-.26.46-.53.18-.99-1.41-.62-.5-1.11.11-1.22.81-.5,1.18-1.36.31h-2.43s-1.65-.51-1.65-.51l-.27-.2-.55-1.19-.23-.18-.66-.13-.74-.23h-.72s-2.2.4-2.2.4l-.62.67-.96.34-.96.6-.39.48-.1.47-.51.22-1.85.44h-5.18l-.11-.25-.21-1.11-.24-.25-2.57-.16-.56-.29-.72,1.14-.63.76-.83.3-3.23.82-.88-.12-2.2-1.14,1.04.06.58-.46.51-1.43-.9.09-3.5,1.18-.97.56-1.67,1.37.76.55.15.59-.17.34-.38.09-.35-.08-.28.31.09.24.32.53-.05.34-.68.65-.63-.15-.4-.26-.62-.22-.41-.06-.05.56.4.6.17.61-.11.45-.79,1.03-1.11.45-2.76-.12-1.17.13-1.39.74Z"/>
  <path class="cls-2" d="M122.19,105.26l2.36-1.16c.53-.72,1.06-1.51,1.59-2.37.39-.63.73-1.24,1.04-1.84v-.97l.97.05v-1.02l1.48-.05.93,1.11,1.67-1.99.05-3.52-.79-1.53,1.3-.93v-.65l-2.08.51-.23-1.48-2.44-2.28-1.45-.72-.46.97-.93.51-.65-1.25h-1.39l-.56.46v.93l-1.3,2.17-2.96.74-.74-.05v-.65l-1.71.14-1.16,1.11h-.79l.28,1.71h-.79v1.43l-1.48.65-.37-.88h-.65v1.57l-1.62.93h-.79l-.79.23.28,1.99-1.02.83-.05.83,1.06.88-.28,2.5,1.11.03.56.64.93-.05,1.4-.11.84.15,2.02.22.69-.42,1.56-.44.91-1.16-.4-1.18.55-.44.93.24.4-.55.2.45-.11,1.09.82.13,1.04-.62.78.38.62.8-.36,1.4-.04.5Z"/>
  <path class="cls-1" d="M163.8,87.59c-.13.6-.25,1.21-.38,1.81l-1.31.07.11.62c-.06.09-.13.18-.19.27l-.6-.07c-.06-.05-.21-.14-.42-.16-.23-.02-.41.06-.48.1-.05.1-.11.21-.16.33-.07.16-.13.32-.17.46-.13.35-.25.7-.38,1.06l-.37.67-.72.25s-.1.05-.15.12c-.07.11-.05.26.04.39l.28.5.47,1.26.11.74-.28.39-.96-.02c-.15,0-.35,0-.59.06-.24.05-.77.17-1.24.62-.16.16-.55.53-.64,1.15-.08.57.15,1,.26,1.2.31.58.8.85,1,.95h.98c.25-.03.51-.07.76-.1l.88.49,1.1.94.61.66.13.9c-.07.27-.14.53-.21.8.06.15.11.31.17.46.18-.05.35-.1.53-.16.29-.22.59-.43.88-.65l1.67-1.01.27-.45.61-.25,3.41-.99h1.02s.71.5.71.5v.67s-.22,1.19-.22,1.19l.18.63,1.64.57.31.28.46.56.45.21.51.08,1.39-.13,2.85.75.72-.14.56-.92.32-1.43.03-1.49-.3-1.12-.83-.7-1.69-.18-.72-.84-.33-1.11.19-.55.43-.41.38-.69.09-.82-.04-.66.16-.53.62-.4.53-.77-.12-.86-.26-.78-.07-.86,1.1-1.42.35-2.4-.1-1.24.49-1.98-.21-.98-1.71-1.5-.83-1.34-.41-.44-.35-.17-.3.03-1.19.7-.97,1.12-.69,1.34-.02,1.09-.99.05-.77-.2-.65.12-.6,1.02-.19.74-.03.49-.11.45-.41.59-1.74.89-1.03.29-.82-.03c-.6-.2-1.21-.4-1.81-.61Z"/>
  <path class="cls-1" d="M96.76,111.17v-1.61l2.3-.09,1.11-1.85,1.76-.79-.37-1.62,1.06-1.48,1.3.05.79.88,1.06-.14,1.02.19.97-.51,1.12-.02c.18.23.37.46.55.69l2.33-.16,2.85.36.69-.42,1.56-.44.91-1.16-.4-1.18.55-.44.93.24.4-.55.2.45-.11,1.09.82.13,1.04-.62.78.38.62.8-.36,1.4c-.02.4-.05.81-.1,1.24-.06.56-.13,1.08-.22,1.57.54.77,1.08,1.54,1.62,2.31l1.57-.37,2.22-1.48,2.36-.05,1.99-.93.96,1.41-.31.29-.5.51-.61,1.23-.35,1.49.38.78.53.37.06.46-.09.85v.82s.54,2.05.54,2.05l.05.74-.25,1.27-1.12,2.35-.63,2.15-.31.5-.45.46-.54.28-.43.32-.41,1.23-.29.55-2.91,2-.74,1.11-.16.74.09,1.29-.13.71-.29.49-.49.3-.78.25-1.02.79-.17.65.71,2-1.31,1.21-.12.29.16.34.38.39.33,1.04.36.54.33.19.92.21.37.24.45.95-.15.97-.99,1.93-1.27,1.56-1.2-.22-1.3-.58-1.57.48.15-.88.24-.69.16-.7-.07-.99-.22-.75-1.1-2.16-.44-.9-.59-.5-2.71-1.35-.78-.02.62-1.15.4-.92,1.14-1.39.54-1.41-.96-1.27-.6-.21-1.22.03-.64-.09-.3-.21-.29-.54-.29-.11-.36.17-.54.48-.28.16-.77-.08-1.79-1.05-1.16-.47-2.6-3.82-1.04-1.07-2.14-.97-.73-.61-.44-.99-.15-1.33.14-1.48.65-2.98.13-1.61-.03-1.87-.15-1.23-.55-.79-1.14-.2-.74.08Z"/>
</svg>