<?xml version="1.0" encoding="utf-8"?>
<!-- Generator: Adobe Illustrator 27.9.0, SVG Export Plug-In . SVG Version: 6.00 Build 0)  -->
<svg version="1.1" xmlns="http://www.w3.org/2000/svg" xmlns:xlink="http://www.w3.org/1999/xlink" x="0px" y="0px"
	 viewBox="0 0 1700 1700" style="enable-background:new 0 0 1700 1700;" xml:space="preserve">
<style type="text/css">
	.st0{fill:#373737;}
	.st1{display:none;}
	.st2{display:inline;fill:#373737;}
	.st3{fill:#928E82;}
	.st4{fill:#FFFFFF;}
	.st5{fill:#799D99;}
</style>
<g id="Layer_2">
	<g>
		<path class="st0" d="M1700,1500c0,110-90,200-200,200H200c-110,0-200-90-200-200V200C0,90,90,0,200,0h1300c110,0,200,90,200,200
			V1500z"/>
	</g>
</g>
<g id="Layer_3" class="st1">
	<rect class="st2" width="1700" height="1700"/>
</g>
<g id="Layer_1">
	<g id="Layer_2_00000058561614527172654110000004137465932893703562_">
		<g id="grouped-and-cut-round">
			<path class="st3" d="M385.8,829.7h216c11,0,20,9,20,20v304c0,11-9,20-20,20h-216c-11,0-20-9-20-20v-304
				C365.8,838.6,374.8,829.7,385.8,829.7z"/>
			<path class="st3" d="M1112.8,829.7h216c11,0,20,9,20,20v304c0,11-9,20-20,20h-216c-11,0-20-9-20-20v-304
				C1092.8,838.6,1101.8,829.7,1112.8,829.7z"/>
			<path class="st3" d="M650.8,777.7h413c11,0,20,9,20,20v356c0,11-9,20-20,20h-413c-11,0-20-9-20-20v-356
				C630.8,786.6,639.8,777.7,650.8,777.7z"/>
			<g>
				<path class="st4" d="M221.8,914.5c0,11,9,20.4,20,21c0,0,571,28.2,785,36.2s431.4,9.1,431.4,9.1c11,0.1,20-8.9,20-19.9v-12.3
					c0-11-9-20.2-20-20.5c0,0-521.2-13.6-751.3-28.5s-465.1-29-465.1-29c-11-0.7-20,7.8-20,18.8
					C221.8,889.4,221.8,914.5,221.8,914.5z"/>
				<polyline class="st4" points="640.1,954.1 640.1,1233.7 611.2,1233.7 611.2,952.7 				"/>
			</g>
			<path class="st4" d="M228.9,1086.2c0-11,8.9-20.9,19.9-22c0,0,222.1-22.5,288-12.5s91,11,193,22s288.1,12,402.5,0
				c114.5-12,315.7,6.8,315.7,6.8c10.9,1,19.9,10.9,19.9,21.9v118.4c0,11-9,20-20,20h-1199c-11,0-20-9-20-20L228.9,1086.2
				L228.9,1086.2z"/>
			<path class="st5" d="M635.6,768.3c-5.5,0-5.8-1.7-0.7-3.8l212.6-86.8c5.1-2.1,13.4-2.1,18.5,0l213.8,86.8
				c5.1,2.1,4.8,3.8-0.7,3.8H635.6L635.6,768.3z"/>
		</g>
		<g id="Layer_9">
			<polygon class="st3" points="857.1,661.8 857.2,661.9 987.6,716.2 987.6,578.5 727.6,578.5 727.6,715.2 			"/>
			<path class="st5" d="M727.6,570.2c0-61.2,58.2-110.8,130-110.8s130,49.6,130,110.8"/>
		</g>
	</g>
</g>
</svg>
